PathFileType	4	(X/Y/Z)	C:\Users\WrightLab\Desktop\Jo\P1.2boxCal1-Unnamed.trc
DataRate	CameraRate	NumFrames	NumMarkers	Units	OrigDataRate	OrigDataStartFrame	OrigNumFrames
100.00	100.00	       41	0	mm	100.00	207	       827
Frame#	Time	
		

207	2.060	-670.57709	349.87283	1000.97150	89.44981	323.13690	-464.47894	-190.69943	360.56320	1306.66772	-213.33679	355.19379	982.96570	-655.47260	354.53403	1314.07642	-413.50592	311.92163	-187.05580				51.05075	332.10513	-141.34036	-383.17334	306.42410	-523.53418	
208	2.070	-670.57477	349.87408	1000.97394	89.62251	323.13953	-464.49533	-190.89583	360.32779	1306.70593	-213.34879	355.22009	982.97382	-655.74249	354.36057	1314.26196	-413.36154	311.88092	-187.00294				51.12523	332.28934	-141.45454	-383.17535	306.42023	-523.53723	
209	2.080	-670.57538	349.88705	1000.98035	89.48778	323.07144	-464.64020	-190.98019	360.36362	1306.80505	-213.57835	355.05591	983.10132	-655.75873	354.36661	1314.26135	-413.36664	311.87466	-187.00720				50.88107	332.48669	-141.60214	-383.73361	306.59351	-524.07721	
210	2.090	-670.55200	349.99832	1000.54224	89.47647	323.15405	-464.44147	-190.98055	360.37045	1306.79504	-213.22794	355.06317	982.99969	-655.60339	354.49164	1314.72217	-413.64932	311.99786	-186.93382				51.04442	332.42310	-141.58704	-383.16745	306.42123	-523.53479	
211	2.100	-670.81519	349.79303	1000.63123	89.67792	323.26520	-464.20261	-191.05759	360.48721	1306.75220	-213.20676	355.06750	982.98700	-655.66595	354.21985	1314.29443	-413.36887	311.87299	-187.00737				50.85533	332.46729	-141.60538	-383.18356	306.41812	-523.54047	
212	2.110	-670.77972	349.79916	1000.63397	89.53564	323.04654	-464.70590	-190.98814	360.37857	1306.80457	-213.20630	355.06705	982.98389	-655.66571	354.24326	1314.30518	-413.48575	311.91049	-187.06725				51.05396	332.09619	-141.33414	-383.17874	306.42749	-523.53314	
213	2.120	-670.82355	349.67780	1001.06873	89.60269	323.13873	-464.49463	-190.91348	360.33398	1306.69604	-213.58360	355.04416	983.11304	-655.75488	354.36942	1314.26501	-413.54446	312.08554	-187.04243				51.25565	332.04727	-141.34122	-383.48584	306.34827	-523.90875	
214	2.130	-670.86310	349.53006	1000.85797	89.64669	323.15643	-464.45816	-190.87404	360.32214	1306.68103	-213.34749	355.21844	982.96143	-655.68658	354.20398	1314.29248	-413.54657	312.07928	-187.04614				51.05440	332.09048	-141.32330	-383.62415	306.72116	-523.89014	
215	2.140	-670.79205	349.69363	1001.07642	89.52449	323.06827	-464.65256	-190.60085	360.48630	1306.55603	-213.21138	355.05383	982.97894	-655.75372	354.35196	1314.25732	-413.50146	311.91116	-187.06178				50.91451	332.33179	-141.46184	-383.15042	306.41315	-523.53632	
216	2.150	-670.82233	349.53760	1000.86407	89.55935	323.09521	-464.59280	-190.90631	360.32236	1306.69824	-213.33200	355.21414	982.96326	-655.66278	354.31281	1314.01221	-413.54694	312.08270	-187.04333				50.85812	332.49915	-141.59964	-383.59390	306.71362	-523.88837	
217	2.160	-670.57635	349.88120	1000.97797	89.62771	323.19543	-464.36258	-190.90924	360.32153	1306.69226	-213.58923	355.06207	983.11279	-655.47632	354.51901	1314.07397	-413.49936	311.91266	-187.06183				50.85918	332.47156	-141.60507	-383.17209	306.42770	-523.53149	
218	2.170	-670.62073	349.70773	1000.80420	89.60812	323.13171	-464.51208	-191.00237	360.38187	1306.81299	-213.31145	355.20132	982.96606	-655.52032	354.24631	1313.71814	-413.55377	312.07788	-187.04366				51.05414	332.43402	-141.57950	-383.16519	306.40109	-523.54761	
219	2.180	-670.54852	349.97589	1000.52649	89.49843	323.11066	-464.54791	-190.69591	360.54361	1306.67493	-213.45435	354.91812	983.13464	-655.75464	354.26447	1314.66113	-413.50009	311.91891	-187.05942				51.06166	332.43909	-141.57784	-383.18982	306.41367	-523.54480	
220	2.190	-670.60315	349.84521	1000.37183	89.63925	323.10739	-464.57428	-190.94427	360.37393	1306.81348	-213.21356	355.07574	982.98236	-655.66315	354.22089	1314.30029	-413.49417	311.91742	-187.06216				51.00755	332.24463	-141.50676	-383.17535	306.41525	-523.54053	
221	2.200	-670.61743	349.84454	1000.37097	89.58135	323.11191	-464.55591	-190.71754	360.61697	1306.50684	-213.21680	355.04910	982.98352	-655.87994	354.20746	1313.95300	-413.38510	311.86206	-187.01213				51.24489	332.04599	-141.31693	-383.59424	306.70032	-523.89722	
222	2.210	-670.83472	349.54398	1000.86584	89.56833	323.13336	-464.50293	-190.89296	360.32523	1306.70728	-213.32195	355.21140	982.96777	-655.51135	354.25607	1313.72498	-413.49490	311.90607	-187.06279				51.04827	332.08493	-141.34444	-383.61777	306.71399	-523.89343	
223	2.220	-670.54297	349.88748	1000.98059	89.62655	323.07309	-464.65451	-190.96916	360.39124	1306.82825	-213.34181	355.19943	982.95844	-655.60626	354.30569	1313.97046	-413.49594	311.92526	-187.05524				50.85276	332.49689	-141.62341	-383.16544	306.41473	-523.53864	
224	2.230	-670.59644	349.85638	1000.38477	89.50748	323.14871	-464.45831	-190.95685	360.37531	1306.82629	-213.20729	355.09583	983.00177	-655.67957	354.19540	1314.28723	-413.49576	311.92624	-187.05933				51.05482	332.43994	-141.58429	-383.15833	306.41895	-523.53424	
225	2.240	-670.61774	349.82474	1000.37085	89.57340	323.08176	-464.62683	-190.68253	360.57510	1306.68042	-213.22163	355.05695	982.99664	-655.76239	354.24249	1314.64929	-413.49649	311.91013	-187.06606				51.27686	332.05951	-141.31097	-383.61758	306.71619	-523.89197	
226	2.250	-670.83301	349.53021	1000.85962	89.54000	323.04617	-464.70740	-191.06221	360.49515	1306.74255	-213.18892	355.06308	982.98425	-655.74896	354.26834	1314.65881	-413.49811	311.91800	-187.06113				51.21872	332.20746	-141.48647	-383.19186	306.42709	-523.53638	
227	2.260	-670.63452	349.73416	1000.81311	89.50805	323.13593	-464.48892	-190.96317	360.39615	1306.81226	-213.20502	355.08755	982.98499	-655.47650	354.30811	1314.07422	-413.40491	312.00522	-186.98940				51.04646	332.09140	-141.32887	-383.18219	306.42349	-523.53656	
228	2.270	-670.83679	349.54678	1000.86682	89.58015	323.15894	-464.44342	-190.64301	360.49326	1306.54370	-213.32831	355.22772	982.97748	-655.67249	354.32318	1314.01685	-413.56277	312.08276	-187.04211				51.01309	332.24564	-141.53189	-383.15598	306.41620	-523.53552	
229	2.280	-670.83856	349.52805	1000.85895	89.56283	323.10809	-464.56256	-190.69244	360.54993	1306.68372	-213.20265	355.06696	982.99860	-655.75964	354.26587	1314.65771	-413.40143	312.01505	-186.98820				50.87275	332.48846	-141.60258	-383.59940	306.70892	-523.89270	
230	2.290	-670.59943	349.84045	1000.37427	89.54772	323.09970	-464.58060	-190.97047	360.36743	1306.81116	-213.59663	355.05338	983.10272	-655.49908	354.40936	1314.46472	-413.55115	312.08765	-187.04201				51.06674	332.44223	-141.56998	-383.17737	306.41083	-523.54388	
231	2.300	-670.56177	350.00137	1000.54022	89.58178	323.21320	-464.31412	-190.97131	360.40216	1306.82214	-213.24324	355.07617	982.98053	-655.66663	354.22049	1314.29797	-413.40463	312.00919	-186.98969				51.04269	332.10547	-141.36595	-383.16135	306.41812	-523.53546	
232	2.310	-670.62494	349.72162	1000.81561	89.57517	323.18594	-464.37833	-190.64920	360.49628	1306.55762	-213.19041	355.07162	982.98547	-655.51440	354.44208	1314.36426	-413.37323	311.86993	-187.01031				51.05122	332.10822	-141.33829	-383.48508	306.35629	-523.90326	
233	2.320	-670.82489	349.67645	1001.06854	89.69350	323.30310	-464.11423	-190.95947	360.39984	1306.82996	-213.58572	355.05579	983.10175	-655.61639	354.57095	1314.32397	-413.48978	311.92651	-187.05272				51.12468	332.27713	-141.43332	-383.16458	306.41821	-523.53613	
234	2.330	-670.58759	349.84814	1000.38098	89.62540	323.12039	-464.54138	-190.97414	360.38110	1306.81543	-213.19875	355.07120	982.98309	-655.58356	354.50027	1314.73071	-413.56720	311.97659	-187.08084				50.90940	332.32813	-141.46126	-383.18207	306.43787	-523.52704	
235	2.340	-670.53821	350.01312	1000.55255	89.58992	323.11154	-464.55786	-190.98769	360.37152	1306.81384	-213.20889	355.06784	982.99042	-655.67450	354.22256	1314.30078	-413.50845	311.90405	-187.06810				50.84525	332.48120	-141.60220	-383.17889	306.41415	-523.54199	
236	2.350	-670.82739	349.65826	1000.42114	89.52976	323.21869	-464.29416	-190.73643	360.54651	1306.68018	-213.21387	355.05832	982.98273	-655.40454	354.36743	1314.10620	-413.49930	311.91086	-187.06602				51.05099	332.09705	-141.33661	-383.16513	306.41684	-523.53717	
237	2.360	-670.84406	349.54547	1000.86243	89.58852	323.09280	-464.60242	-190.90767	360.32339	1306.68359	-213.33134	355.20462	982.97754	-655.51147	354.26733	1313.72217	-413.37097	311.86920	-187.01117				51.26908	332.07388	-141.32434	-383.59851	306.70972	-523.89197	
238	2.370	-670.62250	349.73343	1000.81366	89.47411	323.12082	-464.52048	-190.99516	360.39749	1306.80908	-213.32393	355.22324	982.95911	-655.51831	354.18298	1314.01196	-413.50339	311.91858	-187.05885				51.03737	332.08731	-141.34947	-383.16095	306.40860	-523.54169	
239	2.380	-670.62933	349.71832	1000.80750	89.46394	323.14645	-464.45798	-190.64037	360.49335	1306.55151	-213.23630	355.06265	982.97638	-655.74243	354.35074	1314.25916	-413.49088	311.91855	-187.06224				51.12291	332.26810	-141.43877	-383.16531	306.42676	-523.53064	
240	2.390	-670.57239	349.88193	1000.97729	89.60175	323.22113	-464.29782	-191.00073	360.38177	1306.82800	-213.35649	355.20932	982.95752	-655.61212	354.31107	1313.97021	-413.50116	311.91336	-187.06012				51.04085	332.24887	-141.50990	-383.48874	306.37387	-523.89246	
241	2.400	-670.55518	349.89548	1000.98907	89.59490	323.17471	-464.40771	-190.90022	360.33987	1306.71790	-213.34241	355.21078	982.96466	-655.59460	354.55707	1314.31995	-413.50339	311.90857	-187.06401				50.90412	332.33057	-141.47032	-383.49814	306.36725	-523.89893	
242	2.410	-670.55377	349.89182	1000.98022	89.58619	323.12924	-464.51511	-190.97128	360.38556	1306.80859	-213.23454	355.05820	982.99146	-655.60223	354.57489	1314.32397	-413.55466	312.07996	-187.04590				51.06780	332.44299	-141.58539	-383.16785	306.41180	-523.54108	
243	2.420	-670.76978	349.80478	1000.63513	89.59789	323.11026	-464.56195	-190.88518	360.31879	1306.69788	-213.34612	355.20663	982.96667	-655.75757	354.36841	1314.26379	-413.48645	311.91586	-187.05969				51.06809	332.43671	-141.57436	-383.19223	306.42673	-523.53668	
244	2.430	-670.79211	349.81390	1000.64087	89.51086	323.00668	-464.79779	-190.98590	360.38660	1306.82593	-213.46783	355.14151	983.32068	-655.86084	354.12180	1314.24976	-413.55093	312.07925	-187.04701				51.08307	332.43658	-141.57635	-383.15103	306.40436	-523.54224	
245	2.440	-670.59174	349.85562	1000.37927	89.47167	323.07996	-464.61777	-190.95753	360.39066	1306.81128	-213.48042	354.92697	983.14087	-655.59766	354.49597	1314.72986	-413.49319	311.92307	-187.05560				50.85493	332.48456	-141.62361	-383.47968	306.35620	-523.90210	
246	2.450	-670.62213	349.74335	1000.81995	89.61790	323.12827	-464.52167	-190.72461	360.54547	1306.65747	-213.22247	355.06454	982.99274	-655.49280	354.49570	1314.06409	-413.49887	311.91953	-187.06230				51.07498	332.45181	-141.58446	-383.16321	306.41873	-523.53546	
247	2.460	-670.83728	349.65662	1000.42175	89.62706	322.90598	-465.05356	-190.98346	360.39453	1306.82227	-213.21384	355.08014	982.98529	-655.76294	354.25171	1314.64734	-413.63278	311.99722	-186.93210				51.06519	332.10757	-141.33304	-383.16895	306.42184	-523.53473	
